<mxfile host="Electron" agent="Mozilla/5.0 (X11; Linux x86_64) AppleWebKit/537.36 (KHTML, like Gecko) draw.io/25.0.2 Chrome/128.0.6613.186 Electron/32.2.7 Safari/537.36" version="25.0.2">
  <diagram name="Seite-1" id="bhLrufQwE6neeztawybY">
    <mxGraphModel dx="1195" dy="796" grid="1" gridSize="10" guides="1" tooltips="1" connect="1" arrows="1" fold="1" page="1" pageScale="1" pageWidth="827" pageHeight="1169" math="0" shadow="0">
      <root>
        <mxCell id="0" />
        <mxCell id="1" parent="0" />
        <mxCell id="jQJDxhoKSZgCLVndS6Iz-2" value="&lt;span style=&quot;font-size: 20px;&quot;&gt;CreateOrderLambda&lt;/span&gt;" style="rounded=0;whiteSpace=wrap;html=1;" parent="1" vertex="1">
          <mxGeometry x="70" y="80" width="190" height="60" as="geometry" />
        </mxCell>
        <mxCell id="jQJDxhoKSZgCLVndS6Iz-4" value="&lt;font style=&quot;font-size: 20px;&quot;&gt;InitiateShipmentLambda&lt;/font&gt;" style="rounded=0;whiteSpace=wrap;html=1;" parent="1" vertex="1">
          <mxGeometry x="660" y="270" width="220" height="60" as="geometry" />
        </mxCell>
        <mxCell id="jQJDxhoKSZgCLVndS6Iz-5" value="" style="rounded=1;whiteSpace=wrap;html=1;dashed=1;direction=east;flipH=0;align=left;shadow=0;glass=0;" parent="1" vertex="1">
          <mxGeometry x="320" y="50" width="600" height="140" as="geometry" />
        </mxCell>
        <mxCell id="jQJDxhoKSZgCLVndS6Iz-17" value="Publiziert OrderCreated" style="endArrow=classic;html=1;rounded=0;fontSize=18;entryX=0.132;entryY=-0.01;entryDx=0;entryDy=0;entryPerimeter=0;" parent="1" target="jQJDxhoKSZgCLVndS6Iz-5" edge="1">
          <mxGeometry x="0.0944" y="-20" width="50" height="50" relative="1" as="geometry">
            <mxPoint x="170" y="80" as="sourcePoint" />
            <mxPoint x="400" y="10" as="targetPoint" />
            <mxPoint as="offset" />
            <Array as="points">
              <mxPoint x="170" y="10" />
              <mxPoint x="400" y="10" />
            </Array>
          </mxGeometry>
        </mxCell>
        <mxCell id="jQJDxhoKSZgCLVndS6Iz-26" value="&lt;font style=&quot;font-size: 26px;&quot;&gt;EventBridge&lt;/font&gt;" style="text;html=1;align=center;verticalAlign=middle;whiteSpace=wrap;rounded=0;" parent="1" vertex="1">
          <mxGeometry x="448.75" y="85" width="342.5" height="65" as="geometry" />
        </mxCell>
        <mxCell id="95UaxX5f6KbYi6wilLm2-2" value="Konsumiert PaymentProcessed" style="endArrow=classic;html=1;rounded=0;exitX=0.734;exitY=0.995;exitDx=0;exitDy=0;entryX=0.734;entryY=0.995;entryDx=0;entryDy=0;entryPerimeter=0;exitPerimeter=0;fontSize=18;" parent="1" source="jQJDxhoKSZgCLVndS6Iz-5" edge="1">
          <mxGeometry x="0.0265" width="50" height="50" relative="1" as="geometry">
            <mxPoint x="763.0000000000002" y="189.99999999999997" as="sourcePoint" />
            <mxPoint x="759.9999999999998" y="268.6" as="targetPoint" />
            <mxPoint as="offset" />
          </mxGeometry>
        </mxCell>
        <mxCell id="95UaxX5f6KbYi6wilLm2-4" value="Abonniert OrderCreated" style="endArrow=classic;html=1;rounded=0;exitX=0;exitY=0.5;exitDx=0;exitDy=0;dashed=1;dashPattern=1 4;strokeWidth=1;entryX=-0.001;entryY=0.793;entryDx=0;entryDy=0;entryPerimeter=0;fontSize=18;" parent="1" source="jQJDxhoKSZgCLVndS6Iz-3" target="jQJDxhoKSZgCLVndS6Iz-5" edge="1">
          <mxGeometry x="0.2242" width="50" height="50" relative="1" as="geometry">
            <mxPoint x="529.9999999999995" y="337" as="sourcePoint" />
            <mxPoint x="489.99999999999955" y="190" as="targetPoint" />
            <Array as="points">
              <mxPoint x="230" y="300" />
              <mxPoint x="230" y="160" />
            </Array>
            <mxPoint as="offset" />
          </mxGeometry>
        </mxCell>
        <mxCell id="95UaxX5f6KbYi6wilLm2-5" value="Abonniert PaymentProcessed" style="endArrow=classic;html=1;rounded=0;dashed=1;dashPattern=1 4;strokeWidth=1;fontSize=18;entryX=0.515;entryY=1;entryDx=0;entryDy=0;entryPerimeter=0;" parent="1" source="jQJDxhoKSZgCLVndS6Iz-4" target="jQJDxhoKSZgCLVndS6Iz-5" edge="1">
          <mxGeometry x="-0.4375" y="20" width="50" height="50" relative="1" as="geometry">
            <mxPoint x="629.9999999999995" y="467" as="sourcePoint" />
            <mxPoint x="630" y="200" as="targetPoint" />
            <mxPoint as="offset" />
            <Array as="points">
              <mxPoint x="770" y="360" />
              <mxPoint x="630" y="360" />
            </Array>
          </mxGeometry>
        </mxCell>
        <mxCell id="95UaxX5f6KbYi6wilLm2-7" value="Publiziert ShipmentInitiated" style="endArrow=classic;html=1;rounded=0;exitX=1;exitY=0.5;exitDx=0;exitDy=0;entryX=1;entryY=0.5;entryDx=0;entryDy=0;fontSize=18;" parent="1" source="jQJDxhoKSZgCLVndS6Iz-4" target="jQJDxhoKSZgCLVndS6Iz-5" edge="1">
          <mxGeometry x="0.1333" width="50" height="50" relative="1" as="geometry">
            <mxPoint x="869.9999999999998" y="270" as="sourcePoint" />
            <mxPoint x="870.2" y="190" as="targetPoint" />
            <mxPoint as="offset" />
            <Array as="points">
              <mxPoint x="960" y="300" />
              <mxPoint x="960" y="120" />
            </Array>
          </mxGeometry>
        </mxCell>
        <mxCell id="95UaxX5f6KbYi6wilLm2-8" value="Publiziert PaymentProcessed" style="endArrow=classic;html=1;rounded=0;exitX=0.914;exitY=0.034;exitDx=0;exitDy=0;exitPerimeter=0;fontSize=18;" parent="1" edge="1">
          <mxGeometry x="0.2687" width="50" height="50" relative="1" as="geometry">
            <mxPoint x="490.22000000000025" y="272.0400000000002" as="sourcePoint" />
            <mxPoint x="490" y="190" as="targetPoint" />
            <Array as="points" />
            <mxPoint as="offset" />
          </mxGeometry>
        </mxCell>
        <mxCell id="jQJDxhoKSZgCLVndS6Iz-3" value="&lt;font style=&quot;font-size: 20px;&quot;&gt;ProcessPaymentLambda&lt;/font&gt;" style="rounded=0;whiteSpace=wrap;html=1;" parent="1" vertex="1">
          <mxGeometry x="290" y="270" width="230" height="60" as="geometry" />
        </mxCell>
        <mxCell id="c8-ug_6mlrKK9owII3ED-1" value="" style="sketch=0;points=[[0,0,0],[0.25,0,0],[0.5,0,0],[0.75,0,0],[1,0,0],[0,1,0],[0.25,1,0],[0.5,1,0],[0.75,1,0],[1,1,0],[0,0.25,0],[0,0.5,0],[0,0.75,0],[1,0.25,0],[1,0.5,0],[1,0.75,0]];outlineConnect=0;fontColor=#232F3E;fillColor=#E7157B;strokeColor=#ffffff;dashed=0;verticalLabelPosition=bottom;verticalAlign=top;align=center;html=1;fontSize=12;fontStyle=0;aspect=fixed;shape=mxgraph.aws4.resourceIcon;resIcon=mxgraph.aws4.eventbridge;" parent="1" vertex="1">
          <mxGeometry x="880" y="10" width="78" height="78" as="geometry" />
        </mxCell>
        <mxCell id="c8-ug_6mlrKK9owII3ED-2" value="" style="sketch=0;points=[[0,0,0],[0.25,0,0],[0.5,0,0],[0.75,0,0],[1,0,0],[0,1,0],[0.25,1,0],[0.5,1,0],[0.75,1,0],[1,1,0],[0,0.25,0],[0,0.5,0],[0,0.75,0],[1,0.25,0],[1,0.5,0],[1,0.75,0]];outlineConnect=0;fontColor=#232F3E;fillColor=#ED7100;strokeColor=#ffffff;dashed=0;verticalLabelPosition=bottom;verticalAlign=top;align=center;html=1;fontSize=12;fontStyle=0;aspect=fixed;shape=mxgraph.aws4.resourceIcon;resIcon=mxgraph.aws4.lambda;" parent="1" vertex="1">
          <mxGeometry x="240" y="60" width="40" height="40" as="geometry" />
        </mxCell>
        <mxCell id="c8-ug_6mlrKK9owII3ED-3" value="" style="sketch=0;points=[[0,0,0],[0.25,0,0],[0.5,0,0],[0.75,0,0],[1,0,0],[0,1,0],[0.25,1,0],[0.5,1,0],[0.75,1,0],[1,1,0],[0,0.25,0],[0,0.5,0],[0,0.75,0],[1,0.25,0],[1,0.5,0],[1,0.75,0]];outlineConnect=0;fontColor=#232F3E;fillColor=#ED7100;strokeColor=#ffffff;dashed=0;verticalLabelPosition=bottom;verticalAlign=top;align=center;html=1;fontSize=12;fontStyle=0;aspect=fixed;shape=mxgraph.aws4.resourceIcon;resIcon=mxgraph.aws4.lambda;" parent="1" vertex="1">
          <mxGeometry x="500" y="250" width="40" height="40" as="geometry" />
        </mxCell>
        <mxCell id="c8-ug_6mlrKK9owII3ED-4" value="" style="sketch=0;points=[[0,0,0],[0.25,0,0],[0.5,0,0],[0.75,0,0],[1,0,0],[0,1,0],[0.25,1,0],[0.5,1,0],[0.75,1,0],[1,1,0],[0,0.25,0],[0,0.5,0],[0,0.75,0],[1,0.25,0],[1,0.5,0],[1,0.75,0]];outlineConnect=0;fontColor=#232F3E;fillColor=#ED7100;strokeColor=#ffffff;dashed=0;verticalLabelPosition=bottom;verticalAlign=top;align=center;html=1;fontSize=12;fontStyle=0;aspect=fixed;shape=mxgraph.aws4.resourceIcon;resIcon=mxgraph.aws4.lambda;" parent="1" vertex="1">
          <mxGeometry x="860" y="250" width="40" height="40" as="geometry" />
        </mxCell>
        <mxCell id="DxwnIVtSZjgNm6MnLGqR-1" style="edgeStyle=orthogonalEdgeStyle;rounded=0;orthogonalLoop=1;jettySize=auto;html=1;exitX=0.5;exitY=1;exitDx=0;exitDy=0;exitPerimeter=0;" edge="1" parent="1" source="c8-ug_6mlrKK9owII3ED-2" target="c8-ug_6mlrKK9owII3ED-2">
          <mxGeometry relative="1" as="geometry" />
        </mxCell>
        <mxCell id="95UaxX5f6KbYi6wilLm2-1" value="Konsumiert OrderCreated" style="endArrow=classic;html=1;rounded=0;exitX=0.086;exitY=1;exitDx=0;exitDy=0;exitPerimeter=0;fontSize=18;" parent="1" edge="1">
          <mxGeometry x="0.5" width="50" height="50" relative="1" as="geometry">
            <mxPoint x="361.60000000000014" y="189.9999999999999" as="sourcePoint" />
            <mxPoint x="360" y="270" as="targetPoint" />
            <mxPoint as="offset" />
          </mxGeometry>
        </mxCell>
      </root>
    </mxGraphModel>
  </diagram>
</mxfile>
